<svg width="22" height="23" viewBox="0 0 22 23" fill="none" xmlns="http://www.w3.org/2000/svg">
<rect x="1.08345" y="1.51704" width="19.5021" height="19.5021" rx="9.75104" fill="#F09625"/>
<rect x="1.08345" y="1.51704" width="19.5021" height="19.5021" rx="9.75104" stroke="white" stroke-width="2.1669"/>
<circle cx="10.8344" cy="11.2681" r="4.87552" stroke="white" stroke-width="0.812587" stroke-linecap="round" stroke-linejoin="round"/>
<path d="M10.0383 9.8974C9.8796 9.73873 9.62235 9.73873 9.46368 9.8974C9.30502 10.0561 9.30502 10.3133 9.46368 10.472L10.0383 9.8974ZM11.6306 12.6389C11.7892 12.7976 12.0465 12.7976 12.2052 12.6389C12.3638 12.4802 12.3638 12.223 12.2052 12.0643L11.6306 12.6389ZM12.2052 10.472C12.3638 10.3133 12.3638 10.0561 12.2052 9.8974C12.0465 9.73873 11.7892 9.73873 11.6306 9.8974L12.2052 10.472ZM9.46368 12.0643C9.30502 12.223 9.30502 12.4802 9.46368 12.6389C9.62235 12.7976 9.8796 12.7976 10.0383 12.6389L9.46368 12.0643ZM9.46368 10.472L11.6306 12.6389L12.2052 12.0643L10.0383 9.8974L9.46368 10.472ZM11.6306 9.8974L9.46368 12.0643L10.0383 12.6389L12.2052 10.472L11.6306 9.8974Z" fill="white"/>
</svg>
