<svg width="22" height="23" viewBox="0 0 22 23" fill="none" xmlns="http://www.w3.org/2000/svg">
<rect x="1.08345" y="1.56135" width="19.5021" height="19.5021" rx="9.75104" fill="#F09625"/>
<rect x="1.08345" y="1.56135" width="19.5021" height="19.5021" rx="9.75104" stroke="white" stroke-width="2.1669"/>
<path d="M8.12576 10.0485L7.73205 9.9482C7.68437 10.1353 7.77499 10.3302 7.94882 10.4143C8.12265 10.4984 8.33166 10.4485 8.44879 10.2949L8.12576 10.0485ZM9.89558 9.30364L9.79883 9.69825L9.79887 9.69826L9.89558 9.30364ZM10.8588 9.97538L10.5717 10.2629L10.5721 10.2633L10.8588 9.97538ZM15.7099 9.05499L16.1036 9.15531C16.1513 8.96819 16.0607 8.77335 15.8868 8.68925C15.713 8.60515 15.504 8.65503 15.3869 8.80856L15.7099 9.05499ZM13.9401 9.79986L14.0368 9.40526L14.0368 9.40525L13.9401 9.79986ZM12.9769 9.12813L13.2639 8.84058L13.2636 8.84021L12.9769 9.12813ZM5.95886 13.5697L5.56515 13.4694C5.51747 13.6565 5.60809 13.8514 5.78192 13.9355C5.95575 14.0196 6.16476 13.9697 6.28189 13.8162L5.95886 13.5697ZM7.72868 12.8249L7.63193 13.2195L7.63197 13.2195L7.72868 12.8249ZM8.69186 13.4966L8.40483 13.7841L8.4052 13.7845L8.69186 13.4966ZM13.543 12.5762L13.9367 12.6765C13.9844 12.4894 13.8938 12.2946 13.7199 12.2105C13.5461 12.1264 13.3371 12.1762 13.22 12.3298L13.543 12.5762ZM11.7732 13.3211L11.8699 12.9265L11.8699 12.9265L11.7732 13.3211ZM10.81 12.6493L11.097 12.3618L11.0967 12.3614L10.81 12.6493ZM10.654 7.65572C9.91248 7.65572 9.26922 7.83858 8.75955 8.23912C8.25047 8.6392 7.91673 9.22342 7.73205 9.9482L8.51947 10.1488C8.67229 9.5491 8.92822 9.14006 9.26165 8.87802C9.5945 8.61644 10.0466 8.46831 10.654 8.46831V7.65572ZM8.44879 10.2949C8.67102 10.0036 8.89212 9.8297 9.10497 9.7402C9.31264 9.65289 9.53892 9.63453 9.79883 9.69825L9.99232 8.90904C9.57833 8.80754 9.17241 8.83035 8.79001 8.99114C8.41278 9.14975 8.08593 9.43087 7.80273 9.80209L8.44879 10.2949ZM9.79887 9.69826C10.0544 9.76088 10.2508 9.94255 10.5717 10.2629L11.1458 9.68783C10.8589 9.40149 10.506 9.03493 9.99228 8.90903L9.79887 9.69826ZM10.5721 10.2633C10.8186 10.5087 11.1245 10.8127 11.5422 11.0478C11.9683 11.2876 12.4939 11.4478 13.1817 11.4478V10.6352C12.63 10.6352 12.2422 10.5093 11.9408 10.3397C11.6309 10.1652 11.3952 9.93611 11.1454 9.68746L10.5721 10.2633ZM13.1817 11.4478C13.9232 11.4478 14.5664 11.2649 15.0761 10.8644C15.5852 10.4643 15.9189 9.88009 16.1036 9.15531L15.3162 8.95467C15.1634 9.55441 14.9074 9.96345 14.574 10.2255C14.2412 10.4871 13.7891 10.6352 13.1817 10.6352V11.4478ZM15.3869 8.80856C15.1646 9.09987 14.9435 9.27381 14.7307 9.3633C14.523 9.45062 14.2967 9.46898 14.0368 9.40526L13.8433 10.1945C14.2573 10.296 14.6633 10.2732 15.0457 10.1124C15.4229 9.95376 15.7497 9.67264 16.0329 9.30142L15.3869 8.80856ZM14.0368 9.40525C13.7813 9.34263 13.5849 9.16096 13.2639 8.84058L12.6899 9.41567C12.9767 9.70202 13.3296 10.0686 13.8434 10.1945L14.0368 9.40525ZM13.2636 8.84021C13.0188 8.59649 12.7156 8.29159 12.2993 8.05615C11.8738 7.81555 11.3479 7.65572 10.654 7.65572V8.46831C11.2131 8.46831 11.6005 8.5945 11.8992 8.76345C12.2071 8.93755 12.4388 9.16571 12.6902 9.41605L13.2636 8.84021ZM8.48709 11.1769C7.74559 11.1769 7.10232 11.3598 6.59265 11.7603C6.08357 12.1604 5.74983 12.7446 5.56515 13.4694L6.35258 13.67C6.50539 13.0703 6.76132 12.6613 7.09475 12.3992C7.4276 12.1376 7.8797 11.9895 8.48709 11.9895V11.1769ZM6.28189 13.8162C6.50412 13.5248 6.72522 13.3509 6.93807 13.2614C7.14574 13.1741 7.37202 13.1557 7.63193 13.2195L7.82542 12.4302C7.41143 12.3287 7.00552 12.3516 6.62311 12.5124C6.24589 12.671 5.91903 12.9521 5.63584 13.3233L6.28189 13.8162ZM7.63197 13.2195C7.88748 13.2821 8.08387 13.4638 8.40483 13.7841L8.9789 13.209C8.69204 12.9227 8.33912 12.5561 7.82539 12.4302L7.63197 13.2195ZM8.4052 13.7845C8.64998 14.0282 8.9532 14.3331 9.36952 14.5686C9.79493 14.8092 10.3209 14.969 11.0148 14.969V14.1564C10.4557 14.1564 10.0683 14.0302 9.76953 13.8613C9.4617 13.6872 9.22996 13.459 8.97853 13.2087L8.4052 13.7845ZM11.0148 14.969C11.7563 14.969 12.3995 14.7861 12.9092 14.3856C13.4183 13.9855 13.752 13.4013 13.9367 12.6765L13.1493 12.4759C12.9965 13.0756 12.7406 13.4847 12.4071 13.7467C12.0743 14.0083 11.6222 14.1564 11.0148 14.1564V14.969ZM13.22 12.3298C12.9977 12.6211 12.7766 12.795 12.5638 12.8845C12.3561 12.9718 12.1298 12.9902 11.8699 12.9265L11.6764 13.7157C12.0904 13.8172 12.4964 13.7944 12.8788 13.6336C13.256 13.475 13.5828 13.1939 13.866 12.8226L13.22 12.3298ZM11.8699 12.9265C11.6144 12.8638 11.418 12.6822 11.097 12.3618L10.523 12.9369C10.8098 13.2232 11.1628 13.5898 11.6765 13.7157L11.8699 12.9265ZM11.0967 12.3614C10.8519 12.1177 10.5487 11.8128 10.1324 11.5774C9.70694 11.3368 9.18097 11.1769 8.48709 11.1769V11.9895C9.04622 11.9895 9.4336 12.1157 9.73234 12.2847C10.0402 12.4588 10.2719 12.6869 10.5233 12.9373L11.0967 12.3614Z" fill="white"/>
</svg>
