<svg width="22" height="22" viewBox="0 0 22 22" fill="none" xmlns="http://www.w3.org/2000/svg">
<path d="M12.8333 7.33329V5.49996C12.8333 4.48744 12.0125 3.66663 11 3.66663H4.58333C3.57081 3.66663 2.75 4.48744 2.75 5.49996V16.5C2.75 17.5125 3.57081 18.3333 4.58333 18.3333H11C12.0125 18.3333 12.8333 17.5125 12.8333 16.5V14.6666" stroke="white" stroke-width="1.5" stroke-linecap="round" stroke-linejoin="round"/>
<path d="M6.41663 10.25C6.00241 10.25 5.66663 10.5858 5.66663 11C5.66663 11.4142 6.00241 11.75 6.41663 11.75V10.25ZM19.25 11V11.75C19.5533 11.75 19.8268 11.5673 19.9429 11.287C20.059 11.0068 19.9948 10.6842 19.7803 10.4697L19.25 11ZM17.0303 7.71967C16.7374 7.42678 16.2625 7.42678 15.9696 7.71967C15.6767 8.01256 15.6767 8.48744 15.9696 8.78033L17.0303 7.71967ZM15.9696 13.2197C15.6767 13.5126 15.6767 13.9874 15.9696 14.2803C16.2625 14.5732 16.7374 14.5732 17.0303 14.2803L15.9696 13.2197ZM19.7803 11.5303C20.0732 11.2374 20.0732 10.7626 19.7803 10.4697C19.4874 10.1768 19.0125 10.1768 18.7196 10.4697L19.7803 11.5303ZM6.41663 11.75H19.25V10.25H6.41663V11.75ZM19.7803 10.4697L17.0303 7.71967L15.9696 8.78033L18.7196 11.5303L19.7803 10.4697ZM17.0303 14.2803L19.7803 11.5303L18.7196 10.4697L15.9696 13.2197L17.0303 14.2803Z" fill="white"/>
</svg>
