<svg width="18" height="18" viewBox="0 0 18 18" fill="none" xmlns="http://www.w3.org/2000/svg">
<path fill-rule="evenodd" clip-rule="evenodd" d="M8.12097 7.37103C8.97915 6.51311 9.23598 5.22268 8.77169 4.10155C8.3074 2.98041 7.21344 2.24939 5.99997 2.24939C4.7865 2.24939 3.69253 2.98041 3.22824 4.10155C2.76395 5.22268 3.02078 6.51311 3.87897 7.37103L5.99997 9.49278L8.12097 7.37103V7.37103Z" stroke="#1E2F97" stroke-width="1.125" stroke-linecap="round" stroke-linejoin="round"/>
<path d="M6 5.25003V5.25753" stroke="#1E2F97" stroke-width="1.125" stroke-linecap="round" stroke-linejoin="round"/>
<path fill-rule="evenodd" clip-rule="evenodd" d="M14.121 13.371C14.9791 12.5131 15.236 11.2227 14.7717 10.1015C14.3074 8.98041 13.2134 8.24939 12 8.24939C10.7865 8.24939 9.69253 8.98041 9.22824 10.1015C8.76395 11.2227 9.02078 12.5131 9.87897 13.371L12 15.4928L14.121 13.371Z" stroke="#1E2F97" stroke-width="1.125" stroke-linecap="round" stroke-linejoin="round"/>
<path d="M12 11.25V11.2575" stroke="#1E2F97" stroke-width="1.125" stroke-linecap="round" stroke-linejoin="round"/>
</svg>
