<svg width="23" height="22" viewBox="0 0 23 22" fill="none" xmlns="http://www.w3.org/2000/svg">
<path d="M4.19995 7.39999V5.59999C4.19995 4.60588 5.00584 3.79999 5.99995 3.79999H7.79995" stroke="#4B465C" stroke-width="1.35" stroke-linecap="round" stroke-linejoin="round"/>
<path d="M4.19995 7.39999V5.59999C4.19995 4.60588 5.00584 3.79999 5.99995 3.79999H7.79995" stroke="white" stroke-opacity="0.2" stroke-width="1.35" stroke-linecap="round" stroke-linejoin="round"/>
<path d="M4.19995 14.6V16.4C4.19995 17.3941 5.00584 18.2 5.99995 18.2H7.79995" stroke="#4B465C" stroke-width="1.35" stroke-linecap="round" stroke-linejoin="round"/>
<path d="M4.19995 14.6V16.4C4.19995 17.3941 5.00584 18.2 5.99995 18.2H7.79995" stroke="white" stroke-opacity="0.2" stroke-width="1.35" stroke-linecap="round" stroke-linejoin="round"/>
<path d="M15 3.79999H16.8C17.7941 3.79999 18.6 4.60588 18.6 5.59999V7.39999" stroke="#4B465C" stroke-width="1.35" stroke-linecap="round" stroke-linejoin="round"/>
<path d="M15 3.79999H16.8C17.7941 3.79999 18.6 4.60588 18.6 5.59999V7.39999" stroke="white" stroke-opacity="0.2" stroke-width="1.35" stroke-linecap="round" stroke-linejoin="round"/>
<path d="M15 18.2H16.8C17.7941 18.2 18.6 17.3941 18.6 16.4V14.6" stroke="#4B465C" stroke-width="1.35" stroke-linecap="round" stroke-linejoin="round"/>
<path d="M15 18.2H16.8C17.7941 18.2 18.6 17.3941 18.6 16.4V14.6" stroke="white" stroke-opacity="0.2" stroke-width="1.35" stroke-linecap="round" stroke-linejoin="round"/>
</svg>
