<svg width="25" height="24" viewBox="0 0 25 24" fill="none" xmlns="http://www.w3.org/2000/svg">
<path d="M15.2 19V17C15.2 15.8954 16.0954 15 17.2 15H19.2" stroke="#4B465C" stroke-width="1.5" stroke-linecap="round" stroke-linejoin="round"/>
<path d="M15.2 19V17C15.2 15.8954 16.0954 15 17.2 15H19.2" stroke="white" stroke-opacity="0.2" stroke-width="1.5" stroke-linecap="round" stroke-linejoin="round"/>
<path d="M15.2 5V7C15.2 8.10457 16.0954 9 17.2 9H19.2" stroke="#4B465C" stroke-width="1.5" stroke-linecap="round" stroke-linejoin="round"/>
<path d="M15.2 5V7C15.2 8.10457 16.0954 9 17.2 9H19.2" stroke="white" stroke-opacity="0.2" stroke-width="1.5" stroke-linecap="round" stroke-linejoin="round"/>
<path d="M5.19995 15H7.19995C8.30452 15 9.19995 15.8954 9.19995 17V19" stroke="#4B465C" stroke-width="1.5" stroke-linecap="round" stroke-linejoin="round"/>
<path d="M5.19995 15H7.19995C8.30452 15 9.19995 15.8954 9.19995 17V19" stroke="white" stroke-opacity="0.2" stroke-width="1.5" stroke-linecap="round" stroke-linejoin="round"/>
<path d="M5.19995 9H7.19995C8.30452 9 9.19995 8.10457 9.19995 7V5" stroke="#4B465C" stroke-width="1.5" stroke-linecap="round" stroke-linejoin="round"/>
<path d="M5.19995 9H7.19995C8.30452 9 9.19995 8.10457 9.19995 7V5" stroke="white" stroke-opacity="0.2" stroke-width="1.5" stroke-linecap="round" stroke-linejoin="round"/>
</svg>
