<svg width="32" height="32" viewBox="0 0 32 32" fill="none" xmlns="http://www.w3.org/2000/svg">
<path d="M28.7641 15.8203C28.7641 22.969 22.969 28.7641 15.8203 28.7641C8.67161 28.7641 2.87646 22.969 2.87646 15.8203C2.87646 8.67161 8.67161 2.87646 15.8203 2.87646C22.969 2.87646 28.7641 8.67161 28.7641 15.8203ZM8.32172 15.8203C8.32172 19.9616 11.6789 23.3189 15.8203 23.3189C19.9616 23.3189 23.3189 19.9616 23.3189 15.8203C23.3189 11.6789 19.9616 8.32172 15.8203 8.32172C11.6789 8.32172 8.32172 11.6789 8.32172 15.8203Z" fill="#1E2F97" fill-opacity="0.4"/>
<path d="M25.1686 15.8202C25.1686 20.9832 20.9832 25.1686 15.8202 25.1686C10.6573 25.1686 6.47192 20.9832 6.47192 15.8202C6.47192 10.6573 10.6573 6.47192 15.8202 6.47192C20.9832 6.47192 25.1686 10.6573 25.1686 15.8202ZM7.80468 15.8202C7.80468 20.2471 11.3934 23.8358 15.8202 23.8358C20.2471 23.8358 23.8358 20.2471 23.8358 15.8202C23.8358 11.3934 20.2471 7.80468 15.8202 7.80468C11.3934 7.80468 7.80468 11.3934 7.80468 15.8202Z" fill="white"/>
<path d="M24.1669 15.8203C24.1669 20.4301 20.43 24.167 15.8202 24.167C11.2105 24.167 7.47351 20.4301 7.47351 15.8203C7.47351 11.2106 11.2105 7.47363 15.8202 7.47363C20.43 7.47363 24.1669 11.2106 24.1669 15.8203ZM12.43 15.8203C12.43 17.6927 13.9479 19.2105 15.8202 19.2105C17.6926 19.2105 19.2104 17.6927 19.2104 15.8203C19.2104 13.948 17.6926 12.4301 15.8202 12.4301C13.9479 12.4301 12.43 13.948 12.43 15.8203Z" fill="#1E2F97"/>
<circle cx="15.8203" cy="15.8203" r="3.67255" fill="white"/>
</svg>
