<svg width="390" height="844" viewBox="0 0 390 844" fill="none" xmlns="http://www.w3.org/2000/svg">
<g clip-path="url(#clip0_1435_17178)">
<rect width="390" height="844" fill="#1E2F97"/>
<path d="M122.668 426.336C120.204 426.336 117.996 425.936 116.044 425.136C114.092 424.336 112.524 423.152 111.34 421.584C110.188 420.016 109.58 418.128 109.516 415.92H118.252C118.38 417.168 118.812 418.128 119.548 418.8C120.284 419.44 121.244 419.76 122.428 419.76C123.644 419.76 124.604 419.488 125.308 418.944C126.012 418.368 126.364 417.584 126.364 416.592C126.364 415.76 126.076 415.072 125.5 414.528C124.956 413.984 124.268 413.536 123.436 413.184C122.636 412.832 121.484 412.432 119.98 411.984C117.804 411.312 116.028 410.64 114.652 409.968C113.276 409.296 112.092 408.304 111.1 406.992C110.108 405.68 109.612 403.968 109.612 401.856C109.612 398.72 110.748 396.272 113.02 394.512C115.292 392.72 118.252 391.824 121.9 391.824C125.612 391.824 128.604 392.72 130.876 394.512C133.148 396.272 134.364 398.736 134.524 401.904H125.644C125.58 400.816 125.18 399.968 124.444 399.36C123.708 398.72 122.764 398.4 121.612 398.4C120.62 398.4 119.82 398.672 119.212 399.216C118.604 399.728 118.3 400.48 118.3 401.472C118.3 402.56 118.812 403.408 119.836 404.016C120.86 404.624 122.46 405.28 124.636 405.984C126.812 406.72 128.572 407.424 129.916 408.096C131.292 408.768 132.476 409.744 133.468 411.024C134.46 412.304 134.956 413.952 134.956 415.968C134.956 417.888 134.46 419.632 133.468 421.2C132.508 422.768 131.1 424.016 129.244 424.944C127.388 425.872 125.196 426.336 122.668 426.336ZM148.215 392.304V426H140.007V392.304H148.215ZM175.14 420.048H162.564L160.548 426H151.956L164.148 392.304H173.652L185.844 426H177.156L175.14 420.048ZM173.028 413.712L168.852 401.376L164.724 413.712H173.028ZM213.794 392.304V398.88H204.866V426H196.658V398.88H187.73V392.304H213.794ZM238.89 420.048H226.314L224.298 426H215.706L227.898 392.304H237.402L249.594 426H240.906L238.89 420.048ZM236.778 413.712L232.602 401.376L228.474 413.712H236.778ZM273.704 408.72C275.656 409.136 277.224 410.112 278.408 411.648C279.592 413.152 280.184 414.88 280.184 416.832C280.184 419.648 279.192 421.888 277.208 423.552C275.256 425.184 272.52 426 269 426H253.304V392.304H268.472C271.896 392.304 274.568 393.088 276.488 394.656C278.44 396.224 279.416 398.352 279.416 401.04C279.416 403.024 278.888 404.672 277.832 405.984C276.808 407.296 275.432 408.208 273.704 408.72ZM261.512 405.936H266.888C268.232 405.936 269.256 405.648 269.96 405.072C270.696 404.464 271.064 403.584 271.064 402.432C271.064 401.28 270.696 400.4 269.96 399.792C269.256 399.184 268.232 398.88 266.888 398.88H261.512V405.936ZM267.56 419.376C268.936 419.376 269.992 419.072 270.728 418.464C271.496 417.824 271.88 416.912 271.88 415.728C271.88 414.544 271.48 413.616 270.68 412.944C269.912 412.272 268.84 411.936 267.464 411.936H261.512V419.376H267.56Z" fill="white"/>
<path d="M79.576 466.084C79.024 466.084 78.528 465.988 78.088 465.796C77.656 465.596 77.316 465.324 77.068 464.98C76.82 464.628 76.692 464.224 76.684 463.768H77.848C77.888 464.16 78.048 464.492 78.328 464.764C78.616 465.028 79.032 465.16 79.576 465.16C80.096 465.16 80.504 465.032 80.8 464.776C81.104 464.512 81.256 464.176 81.256 463.768C81.256 463.448 81.168 463.188 80.992 462.988C80.816 462.788 80.596 462.636 80.332 462.532C80.068 462.428 79.712 462.316 79.264 462.196C78.712 462.052 78.268 461.908 77.932 461.764C77.604 461.62 77.32 461.396 77.08 461.092C76.848 460.78 76.732 460.364 76.732 459.844C76.732 459.388 76.848 458.984 77.08 458.632C77.312 458.28 77.636 458.008 78.052 457.816C78.476 457.624 78.96 457.528 79.504 457.528C80.288 457.528 80.928 457.724 81.424 458.116C81.928 458.508 82.212 459.028 82.276 459.676H81.076C81.036 459.356 80.868 459.076 80.572 458.836C80.276 458.588 79.884 458.464 79.396 458.464C78.94 458.464 78.568 458.584 78.28 458.824C77.992 459.056 77.848 459.384 77.848 459.808C77.848 460.112 77.932 460.36 78.1 460.552C78.276 460.744 78.488 460.892 78.736 460.996C78.992 461.092 79.348 461.204 79.804 461.332C80.356 461.484 80.8 461.636 81.136 461.788C81.472 461.932 81.76 462.16 82 462.472C82.24 462.776 82.36 463.192 82.36 463.72C82.36 464.128 82.252 464.512 82.036 464.872C81.82 465.232 81.5 465.524 81.076 465.748C80.652 465.972 80.152 466.084 79.576 466.084ZM84.531 458.356C84.323 458.356 84.147 458.284 84.003 458.14C83.859 457.996 83.787 457.82 83.787 457.612C83.787 457.404 83.859 457.228 84.003 457.084C84.147 456.94 84.323 456.868 84.531 456.868C84.731 456.868 84.899 456.94 85.035 457.084C85.179 457.228 85.251 457.404 85.251 457.612C85.251 457.82 85.179 457.996 85.035 458.14C84.899 458.284 84.731 458.356 84.531 458.356ZM85.059 459.424V466H83.967V459.424H85.059ZM89.2481 466.108C88.7441 466.108 88.2921 466.024 87.8921 465.856C87.4921 465.68 87.1761 465.44 86.9441 465.136C86.7121 464.824 86.5841 464.468 86.5601 464.068H87.6881C87.7201 464.396 87.8721 464.664 88.1441 464.872C88.4241 465.08 88.7881 465.184 89.2361 465.184C89.6521 465.184 89.9801 465.092 90.2201 464.908C90.4601 464.724 90.5801 464.492 90.5801 464.212C90.5801 463.924 90.4521 463.712 90.1961 463.576C89.9401 463.432 89.5441 463.292 89.0081 463.156C88.5201 463.028 88.1201 462.9 87.8081 462.772C87.5041 462.636 87.2401 462.44 87.0161 462.184C86.8001 461.92 86.6921 461.576 86.6921 461.152C86.6921 460.816 86.7921 460.508 86.9921 460.228C87.1921 459.948 87.4761 459.728 87.8441 459.568C88.2121 459.4 88.6321 459.316 89.1041 459.316C89.8321 459.316 90.4201 459.5 90.8681 459.868C91.3161 460.236 91.5561 460.74 91.5881 461.38H90.4961C90.4721 461.036 90.3321 460.76 90.0761 460.552C89.8281 460.344 89.4921 460.24 89.0681 460.24C88.6761 460.24 88.3641 460.324 88.1321 460.492C87.9001 460.66 87.7841 460.88 87.7841 461.152C87.7841 461.368 87.8521 461.548 87.9881 461.692C88.1321 461.828 88.3081 461.94 88.5161 462.028C88.7321 462.108 89.0281 462.2 89.4041 462.304C89.8761 462.432 90.2601 462.56 90.5561 462.688C90.8521 462.808 91.1041 462.992 91.3121 463.24C91.5281 463.488 91.6401 463.812 91.6481 464.212C91.6481 464.572 91.5481 464.896 91.3481 465.184C91.1481 465.472 90.8641 465.7 90.4961 465.868C90.1361 466.028 89.7201 466.108 89.2481 466.108ZM94.5216 460.324V464.2C94.5216 464.52 94.5896 464.748 94.7256 464.884C94.8616 465.012 95.0976 465.076 95.4336 465.076H96.2376V466H95.2536C94.6456 466 94.1896 465.86 93.8856 465.58C93.5816 465.3 93.4296 464.84 93.4296 464.2V460.324H92.5776V459.424H93.4296V457.768H94.5216V459.424H96.2376V460.324H94.5216ZM103.561 462.46C103.561 462.668 103.549 462.888 103.525 463.12H98.2687C98.3087 463.768 98.5287 464.276 98.9287 464.644C99.3367 465.004 99.8287 465.184 100.405 465.184C100.877 465.184 101.269 465.076 101.581 464.86C101.901 464.636 102.125 464.34 102.253 463.972H103.429C103.253 464.604 102.901 465.12 102.373 465.52C101.845 465.912 101.189 466.108 100.405 466.108C99.7807 466.108 99.2207 465.968 98.7247 465.688C98.2367 465.408 97.8527 465.012 97.5727 464.5C97.2927 463.98 97.1527 463.38 97.1527 462.7C97.1527 462.02 97.2887 461.424 97.5607 460.912C97.8327 460.4 98.2127 460.008 98.7007 459.736C99.1967 459.456 99.7647 459.316 100.405 459.316C101.029 459.316 101.581 459.452 102.061 459.724C102.541 459.996 102.909 460.372 103.165 460.852C103.429 461.324 103.561 461.86 103.561 462.46ZM102.433 462.232C102.433 461.816 102.341 461.46 102.157 461.164C101.973 460.86 101.721 460.632 101.401 460.48C101.089 460.32 100.741 460.24 100.357 460.24C99.8047 460.24 99.3327 460.416 98.9407 460.768C98.5567 461.12 98.3367 461.608 98.2807 462.232H102.433ZM112.91 459.304C113.422 459.304 113.878 459.412 114.278 459.628C114.678 459.836 114.994 460.152 115.226 460.576C115.458 461 115.574 461.516 115.574 462.124V466H114.494V462.28C114.494 461.624 114.33 461.124 114.002 460.78C113.682 460.428 113.246 460.252 112.694 460.252C112.126 460.252 111.674 460.436 111.338 460.804C111.002 461.164 110.834 461.688 110.834 462.376V466H109.754V462.28C109.754 461.624 109.59 461.124 109.262 460.78C108.942 460.428 108.506 460.252 107.954 460.252C107.386 460.252 106.934 460.436 106.598 460.804C106.262 461.164 106.094 461.688 106.094 462.376V466H105.002V459.424H106.094V460.372C106.31 460.028 106.598 459.764 106.958 459.58C107.326 459.396 107.73 459.304 108.17 459.304C108.722 459.304 109.21 459.428 109.634 459.676C110.058 459.924 110.374 460.288 110.582 460.768C110.766 460.304 111.07 459.944 111.494 459.688C111.918 459.432 112.39 459.304 112.91 459.304ZM121.657 457.636V466H120.565V457.636H121.657ZM126.722 459.304C127.522 459.304 128.17 459.548 128.666 460.036C129.162 460.516 129.41 461.212 129.41 462.124V466H128.33V462.28C128.33 461.624 128.166 461.124 127.838 460.78C127.51 460.428 127.062 460.252 126.494 460.252C125.918 460.252 125.458 460.432 125.114 460.792C124.778 461.152 124.61 461.676 124.61 462.364V466H123.518V459.424H124.61V460.36C124.826 460.024 125.118 459.764 125.486 459.58C125.862 459.396 126.274 459.304 126.722 459.304ZM133.87 460.324H132.49V466H131.398V460.324H130.546V459.424H131.398V458.956C131.398 458.22 131.586 457.684 131.962 457.348C132.346 457.004 132.958 456.832 133.798 456.832V457.744C133.318 457.744 132.978 457.84 132.778 458.032C132.586 458.216 132.49 458.524 132.49 458.956V459.424H133.87V460.324ZM138.011 466.108C137.395 466.108 136.835 465.968 136.331 465.688C135.835 465.408 135.443 465.012 135.155 464.5C134.875 463.98 134.735 463.38 134.735 462.7C134.735 462.028 134.879 461.436 135.167 460.924C135.463 460.404 135.863 460.008 136.367 459.736C136.871 459.456 137.435 459.316 138.059 459.316C138.683 459.316 139.247 459.456 139.751 459.736C140.255 460.008 140.651 460.4 140.939 460.912C141.235 461.424 141.383 462.02 141.383 462.7C141.383 463.38 141.231 463.98 140.927 464.5C140.631 465.012 140.227 465.408 139.715 465.688C139.203 465.968 138.635 466.108 138.011 466.108ZM138.011 465.148C138.403 465.148 138.771 465.056 139.115 464.872C139.459 464.688 139.735 464.412 139.943 464.044C140.159 463.676 140.267 463.228 140.267 462.7C140.267 462.172 140.163 461.724 139.955 461.356C139.747 460.988 139.475 460.716 139.139 460.54C138.803 460.356 138.439 460.264 138.047 460.264C137.647 460.264 137.279 460.356 136.943 460.54C136.615 460.716 136.351 460.988 136.151 461.356C135.951 461.724 135.851 462.172 135.851 462.7C135.851 463.236 135.947 463.688 136.139 464.056C136.339 464.424 136.603 464.7 136.931 464.884C137.259 465.06 137.619 465.148 138.011 465.148ZM143.911 460.492C144.103 460.116 144.375 459.824 144.727 459.616C145.087 459.408 145.523 459.304 146.035 459.304V460.432H145.747C144.523 460.432 143.911 461.096 143.911 462.424V466H142.819V459.424H143.911V460.492ZM155.203 459.304C155.715 459.304 156.171 459.412 156.571 459.628C156.971 459.836 157.287 460.152 157.519 460.576C157.751 461 157.867 461.516 157.867 462.124V466H156.787V462.28C156.787 461.624 156.623 461.124 156.295 460.78C155.975 460.428 155.539 460.252 154.987 460.252C154.419 460.252 153.967 460.436 153.631 460.804C153.295 461.164 153.127 461.688 153.127 462.376V466H152.047V462.28C152.047 461.624 151.883 461.124 151.555 460.78C151.235 460.428 150.799 460.252 150.247 460.252C149.679 460.252 149.227 460.436 148.891 460.804C148.555 461.164 148.387 461.688 148.387 462.376V466H147.295V459.424H148.387V460.372C148.603 460.028 148.891 459.764 149.251 459.58C149.619 459.396 150.023 459.304 150.463 459.304C151.015 459.304 151.503 459.428 151.927 459.676C152.351 459.924 152.667 460.288 152.875 460.768C153.059 460.304 153.363 459.944 153.787 459.688C154.211 459.432 154.683 459.304 155.203 459.304ZM159.25 462.688C159.25 462.016 159.386 461.428 159.658 460.924C159.93 460.412 160.302 460.016 160.774 459.736C161.254 459.456 161.786 459.316 162.37 459.316C162.946 459.316 163.446 459.44 163.87 459.688C164.294 459.936 164.61 460.248 164.818 460.624V459.424H165.922V466H164.818V464.776C164.602 465.16 164.278 465.48 163.846 465.736C163.422 465.984 162.926 466.108 162.358 466.108C161.774 466.108 161.246 465.964 160.774 465.676C160.302 465.388 159.93 464.984 159.658 464.464C159.386 463.944 159.25 463.352 159.25 462.688ZM164.818 462.7C164.818 462.204 164.718 461.772 164.518 461.404C164.318 461.036 164.046 460.756 163.702 460.564C163.366 460.364 162.994 460.264 162.586 460.264C162.178 460.264 161.806 460.36 161.47 460.552C161.134 460.744 160.866 461.024 160.666 461.392C160.466 461.76 160.366 462.192 160.366 462.688C160.366 463.192 160.466 463.632 160.666 464.008C160.866 464.376 161.134 464.66 161.47 464.86C161.806 465.052 162.178 465.148 162.586 465.148C162.994 465.148 163.366 465.052 163.702 464.86C164.046 464.66 164.318 464.376 164.518 464.008C164.718 463.632 164.818 463.196 164.818 462.7ZM170.096 466.108C169.592 466.108 169.14 466.024 168.74 465.856C168.34 465.68 168.024 465.44 167.792 465.136C167.56 464.824 167.432 464.468 167.408 464.068H168.536C168.568 464.396 168.72 464.664 168.992 464.872C169.272 465.08 169.636 465.184 170.084 465.184C170.5 465.184 170.828 465.092 171.068 464.908C171.308 464.724 171.428 464.492 171.428 464.212C171.428 463.924 171.3 463.712 171.044 463.576C170.788 463.432 170.392 463.292 169.856 463.156C169.368 463.028 168.968 462.9 168.656 462.772C168.352 462.636 168.088 462.44 167.864 462.184C167.648 461.92 167.54 461.576 167.54 461.152C167.54 460.816 167.64 460.508 167.84 460.228C168.04 459.948 168.324 459.728 168.692 459.568C169.06 459.4 169.48 459.316 169.952 459.316C170.68 459.316 171.268 459.5 171.716 459.868C172.164 460.236 172.404 460.74 172.436 461.38H171.344C171.32 461.036 171.18 460.76 170.924 460.552C170.676 460.344 170.34 460.24 169.916 460.24C169.524 460.24 169.212 460.324 168.98 460.492C168.748 460.66 168.632 460.88 168.632 461.152C168.632 461.368 168.7 461.548 168.836 461.692C168.98 461.828 169.156 461.94 169.364 462.028C169.58 462.108 169.876 462.2 170.252 462.304C170.724 462.432 171.108 462.56 171.404 462.688C171.7 462.808 171.952 462.992 172.16 463.24C172.376 463.488 172.488 463.812 172.496 464.212C172.496 464.572 172.396 464.896 172.196 465.184C171.996 465.472 171.712 465.7 171.344 465.868C170.984 466.028 170.568 466.108 170.096 466.108ZM174.601 458.356C174.393 458.356 174.217 458.284 174.073 458.14C173.929 457.996 173.857 457.82 173.857 457.612C173.857 457.404 173.929 457.228 174.073 457.084C174.217 456.94 174.393 456.868 174.601 456.868C174.801 456.868 174.969 456.94 175.105 457.084C175.249 457.228 175.321 457.404 175.321 457.612C175.321 457.82 175.249 457.996 175.105 458.14C174.969 458.284 174.801 458.356 174.601 458.356ZM175.129 459.424V466H174.037V459.424H175.129ZM179.782 462.688C179.782 462.016 179.918 461.428 180.19 460.924C180.462 460.412 180.834 460.016 181.306 459.736C181.786 459.456 182.318 459.316 182.902 459.316C183.478 459.316 183.978 459.44 184.402 459.688C184.826 459.936 185.142 460.248 185.35 460.624V459.424H186.454V466H185.35V464.776C185.134 465.16 184.81 465.48 184.378 465.736C183.954 465.984 183.458 466.108 182.89 466.108C182.306 466.108 181.778 465.964 181.306 465.676C180.834 465.388 180.462 464.984 180.19 464.464C179.918 463.944 179.782 463.352 179.782 462.688ZM185.35 462.7C185.35 462.204 185.25 461.772 185.05 461.404C184.85 461.036 184.578 460.756 184.234 460.564C183.898 460.364 183.526 460.264 183.118 460.264C182.71 460.264 182.338 460.36 182.002 460.552C181.666 460.744 181.398 461.024 181.198 461.392C180.998 461.76 180.898 462.192 180.898 462.688C180.898 463.192 180.998 463.632 181.198 464.008C181.398 464.376 181.666 464.66 182.002 464.86C182.338 465.052 182.71 465.148 183.118 465.148C183.526 465.148 183.898 465.052 184.234 464.86C184.578 464.66 184.85 464.376 185.05 464.008C185.25 463.632 185.35 463.196 185.35 462.7ZM188.863 458.356C188.655 458.356 188.479 458.284 188.335 458.14C188.191 457.996 188.119 457.82 188.119 457.612C188.119 457.404 188.191 457.228 188.335 457.084C188.479 456.94 188.655 456.868 188.863 456.868C189.063 456.868 189.231 456.94 189.367 457.084C189.511 457.228 189.583 457.404 189.583 457.612C189.583 457.82 189.511 457.996 189.367 458.14C189.231 458.284 189.063 458.356 188.863 458.356ZM189.391 459.424V466H188.299V459.424H189.391ZM192.344 460.492C192.536 460.116 192.808 459.824 193.16 459.616C193.52 459.408 193.956 459.304 194.468 459.304V460.432H194.18C192.956 460.432 192.344 461.096 192.344 462.424V466H191.252V459.424H192.344V460.492ZM200.26 460.324V464.2C200.26 464.52 200.328 464.748 200.464 464.884C200.6 465.012 200.836 465.076 201.172 465.076H201.976V466H200.992C200.384 466 199.928 465.86 199.624 465.58C199.32 465.3 199.168 464.84 199.168 464.2V460.324H198.316V459.424H199.168V457.768H200.26V459.424H201.976V460.324H200.26ZM202.891 462.688C202.891 462.016 203.027 461.428 203.299 460.924C203.571 460.412 203.943 460.016 204.415 459.736C204.895 459.456 205.427 459.316 206.011 459.316C206.587 459.316 207.087 459.44 207.511 459.688C207.935 459.936 208.251 460.248 208.459 460.624V459.424H209.563V466H208.459V464.776C208.243 465.16 207.919 465.48 207.487 465.736C207.063 465.984 206.567 466.108 205.999 466.108C205.415 466.108 204.887 465.964 204.415 465.676C203.943 465.388 203.571 464.984 203.299 464.464C203.027 463.944 202.891 463.352 202.891 462.688ZM208.459 462.7C208.459 462.204 208.359 461.772 208.159 461.404C207.959 461.036 207.687 460.756 207.343 460.564C207.007 460.364 206.635 460.264 206.227 460.264C205.819 460.264 205.447 460.36 205.111 460.552C204.775 460.744 204.507 461.024 204.307 461.392C204.107 461.76 204.007 462.192 204.007 462.688C204.007 463.192 204.107 463.632 204.307 464.008C204.507 464.376 204.775 464.66 205.111 464.86C205.447 465.052 205.819 465.148 206.227 465.148C206.635 465.148 207.007 465.052 207.343 464.86C207.687 464.66 207.959 464.376 208.159 464.008C208.359 463.632 208.459 463.196 208.459 462.7ZM214.612 459.304C215.412 459.304 216.06 459.548 216.556 460.036C217.052 460.516 217.3 461.212 217.3 462.124V466H216.22V462.28C216.22 461.624 216.056 461.124 215.728 460.78C215.4 460.428 214.952 460.252 214.384 460.252C213.808 460.252 213.348 460.432 213.004 460.792C212.668 461.152 212.5 461.676 212.5 462.364V466H211.408V459.424H212.5V460.36C212.716 460.024 213.008 459.764 213.376 459.58C213.752 459.396 214.164 459.304 214.612 459.304ZM218.676 462.688C218.676 462.016 218.812 461.428 219.084 460.924C219.356 460.412 219.728 460.016 220.2 459.736C220.68 459.456 221.212 459.316 221.796 459.316C222.372 459.316 222.872 459.44 223.296 459.688C223.72 459.936 224.036 460.248 224.244 460.624V459.424H225.348V466H224.244V464.776C224.028 465.16 223.704 465.48 223.272 465.736C222.848 465.984 222.352 466.108 221.784 466.108C221.2 466.108 220.672 465.964 220.2 465.676C219.728 465.388 219.356 464.984 219.084 464.464C218.812 463.944 218.676 463.352 218.676 462.688ZM224.244 462.7C224.244 462.204 224.144 461.772 223.944 461.404C223.744 461.036 223.472 460.756 223.128 460.564C222.792 460.364 222.42 460.264 222.012 460.264C221.604 460.264 221.232 460.36 220.896 460.552C220.56 460.744 220.292 461.024 220.092 461.392C219.892 461.76 219.792 462.192 219.792 462.688C219.792 463.192 219.892 463.632 220.092 464.008C220.292 464.376 220.56 464.66 220.896 464.86C221.232 465.052 221.604 465.148 222.012 465.148C222.42 465.148 222.792 465.052 223.128 464.86C223.472 464.66 223.744 464.376 223.944 464.008C224.144 463.632 224.244 463.196 224.244 462.7ZM230.458 459.304C230.954 459.304 231.402 459.412 231.802 459.628C232.202 459.836 232.514 460.152 232.738 460.576C232.97 461 233.086 461.516 233.086 462.124V466H232.006V462.28C232.006 461.624 231.842 461.124 231.514 460.78C231.186 460.428 230.738 460.252 230.17 460.252C229.594 460.252 229.134 460.432 228.79 460.792C228.454 461.152 228.286 461.676 228.286 462.364V466H227.194V457.12H228.286V460.36C228.502 460.024 228.798 459.764 229.174 459.58C229.558 459.396 229.986 459.304 230.458 459.304ZM237.661 462.688C237.661 462.016 237.797 461.428 238.069 460.924C238.341 460.412 238.713 460.016 239.185 459.736C239.665 459.456 240.201 459.316 240.793 459.316C241.305 459.316 241.781 459.436 242.221 459.676C242.661 459.908 242.997 460.216 243.229 460.6V457.12H244.333V466H243.229V464.764C243.013 465.156 242.693 465.48 242.269 465.736C241.845 465.984 241.349 466.108 240.781 466.108C240.197 466.108 239.665 465.964 239.185 465.676C238.713 465.388 238.341 464.984 238.069 464.464C237.797 463.944 237.661 463.352 237.661 462.688ZM243.229 462.7C243.229 462.204 243.129 461.772 242.929 461.404C242.729 461.036 242.457 460.756 242.113 460.564C241.777 460.364 241.405 460.264 240.997 460.264C240.589 460.264 240.217 460.36 239.881 460.552C239.545 460.744 239.277 461.024 239.077 461.392C238.877 461.76 238.777 462.192 238.777 462.688C238.777 463.192 238.877 463.632 239.077 464.008C239.277 464.376 239.545 464.66 239.881 464.86C240.217 465.052 240.589 465.148 240.997 465.148C241.405 465.148 241.777 465.052 242.113 464.86C242.457 464.66 242.729 464.376 242.929 464.008C243.129 463.632 243.229 463.196 243.229 462.7ZM245.77 462.688C245.77 462.016 245.906 461.428 246.178 460.924C246.45 460.412 246.822 460.016 247.294 459.736C247.774 459.456 248.306 459.316 248.89 459.316C249.466 459.316 249.966 459.44 250.39 459.688C250.814 459.936 251.13 460.248 251.338 460.624V459.424H252.442V466H251.338V464.776C251.122 465.16 250.798 465.48 250.366 465.736C249.942 465.984 249.446 466.108 248.878 466.108C248.294 466.108 247.766 465.964 247.294 465.676C246.822 465.388 246.45 464.984 246.178 464.464C245.906 463.944 245.77 463.352 245.77 462.688ZM251.338 462.7C251.338 462.204 251.238 461.772 251.038 461.404C250.838 461.036 250.566 460.756 250.222 460.564C249.886 460.364 249.514 460.264 249.106 460.264C248.698 460.264 248.326 460.36 247.99 460.552C247.654 460.744 247.386 461.024 247.186 461.392C246.986 461.76 246.886 462.192 246.886 462.688C246.886 463.192 246.986 463.632 247.186 464.008C247.386 464.376 247.654 464.66 247.99 464.86C248.326 465.052 248.698 465.148 249.106 465.148C249.514 465.148 249.886 465.052 250.222 464.86C250.566 464.66 250.838 464.376 251.038 464.008C251.238 463.632 251.338 463.196 251.338 462.7ZM257.491 459.304C258.291 459.304 258.939 459.548 259.435 460.036C259.931 460.516 260.179 461.212 260.179 462.124V466H259.099V462.28C259.099 461.624 258.935 461.124 258.607 460.78C258.279 460.428 257.831 460.252 257.263 460.252C256.687 460.252 256.227 460.432 255.883 460.792C255.547 461.152 255.379 461.676 255.379 462.364V466H254.287V459.424H255.379V460.36C255.595 460.024 255.887 459.764 256.255 459.58C256.631 459.396 257.043 459.304 257.491 459.304ZM264.754 462.688C264.754 462.016 264.89 461.428 265.162 460.924C265.434 460.412 265.806 460.016 266.278 459.736C266.758 459.456 267.29 459.316 267.874 459.316C268.45 459.316 268.95 459.44 269.374 459.688C269.798 459.936 270.114 460.248 270.322 460.624V459.424H271.426V466H270.322V464.776C270.106 465.16 269.782 465.48 269.35 465.736C268.926 465.984 268.43 466.108 267.862 466.108C267.278 466.108 266.75 465.964 266.278 465.676C265.806 465.388 265.434 464.984 265.162 464.464C264.89 463.944 264.754 463.352 264.754 462.688ZM270.322 462.7C270.322 462.204 270.222 461.772 270.022 461.404C269.822 461.036 269.55 460.756 269.206 460.564C268.87 460.364 268.498 460.264 268.09 460.264C267.682 460.264 267.31 460.36 266.974 460.552C266.638 460.744 266.37 461.024 266.17 461.392C265.97 461.76 265.87 462.192 265.87 462.688C265.87 463.192 265.97 463.632 266.17 464.008C266.37 464.376 266.638 464.66 266.974 464.86C267.31 465.052 267.682 465.148 268.09 465.148C268.498 465.148 268.87 465.052 269.206 464.86C269.55 464.66 269.822 464.376 270.022 464.008C270.222 463.632 270.322 463.196 270.322 462.7ZM273.836 458.356C273.628 458.356 273.452 458.284 273.308 458.14C273.164 457.996 273.092 457.82 273.092 457.612C273.092 457.404 273.164 457.228 273.308 457.084C273.452 456.94 273.628 456.868 273.836 456.868C274.036 456.868 274.204 456.94 274.34 457.084C274.484 457.228 274.556 457.404 274.556 457.612C274.556 457.82 274.484 457.996 274.34 458.14C274.204 458.284 274.036 458.356 273.836 458.356ZM274.364 459.424V466H273.272V459.424H274.364ZM277.317 460.492C277.509 460.116 277.781 459.824 278.133 459.616C278.493 459.408 278.929 459.304 279.441 459.304V460.432H279.153C277.929 460.432 277.317 461.096 277.317 462.424V466H276.225V459.424H277.317V460.492ZM284.993 460.648C285.217 460.256 285.545 459.936 285.977 459.688C286.409 459.44 286.901 459.316 287.453 459.316C288.045 459.316 288.577 459.456 289.049 459.736C289.521 460.016 289.893 460.412 290.165 460.924C290.437 461.428 290.573 462.016 290.573 462.688C290.573 463.352 290.437 463.944 290.165 464.464C289.893 464.984 289.517 465.388 289.037 465.676C288.565 465.964 288.037 466.108 287.453 466.108C286.885 466.108 286.385 465.984 285.953 465.736C285.529 465.488 285.209 465.172 284.993 464.788V466H283.901V457.12H284.993V460.648ZM289.457 462.688C289.457 462.192 289.357 461.76 289.157 461.392C288.957 461.024 288.685 460.744 288.341 460.552C288.005 460.36 287.633 460.264 287.225 460.264C286.825 460.264 286.453 460.364 286.109 460.564C285.773 460.756 285.501 461.04 285.293 461.416C285.093 461.784 284.993 462.212 284.993 462.7C284.993 463.196 285.093 463.632 285.293 464.008C285.501 464.376 285.773 464.66 286.109 464.86C286.453 465.052 286.825 465.148 287.225 465.148C287.633 465.148 288.005 465.052 288.341 464.86C288.685 464.66 288.957 464.376 289.157 464.008C289.357 463.632 289.457 463.192 289.457 462.688ZM291.602 462.688C291.602 462.016 291.738 461.428 292.01 460.924C292.282 460.412 292.654 460.016 293.126 459.736C293.606 459.456 294.138 459.316 294.722 459.316C295.298 459.316 295.798 459.44 296.222 459.688C296.646 459.936 296.962 460.248 297.17 460.624V459.424H298.274V466H297.17V464.776C296.954 465.16 296.63 465.48 296.198 465.736C295.774 465.984 295.278 466.108 294.71 466.108C294.126 466.108 293.598 465.964 293.126 465.676C292.654 465.388 292.282 464.984 292.01 464.464C291.738 463.944 291.602 463.352 291.602 462.688ZM297.17 462.7C297.17 462.204 297.07 461.772 296.87 461.404C296.67 461.036 296.398 460.756 296.054 460.564C295.718 460.364 295.346 460.264 294.938 460.264C294.53 460.264 294.158 460.36 293.822 460.552C293.486 460.744 293.218 461.024 293.018 461.392C292.818 461.76 292.718 462.192 292.718 462.688C292.718 463.192 292.818 463.632 293.018 464.008C293.218 464.376 293.486 464.66 293.822 464.86C294.158 465.052 294.53 465.148 294.938 465.148C295.346 465.148 295.718 465.052 296.054 464.86C296.398 464.66 296.67 464.376 296.87 464.008C297.07 463.632 297.17 463.196 297.17 462.7ZM303.791 466L301.211 463.096V466H300.119V457.12H301.211V462.34L303.743 459.424H305.267L302.171 462.7L305.279 466H303.791ZM312.127 459.424V466H311.035V465.028C310.827 465.364 310.535 465.628 310.159 465.82C309.791 466.004 309.383 466.096 308.935 466.096C308.423 466.096 307.963 465.992 307.555 465.784C307.147 465.568 306.823 465.248 306.583 464.824C306.351 464.4 306.235 463.884 306.235 463.276V459.424H307.315V463.132C307.315 463.78 307.479 464.28 307.807 464.632C308.135 464.976 308.583 465.148 309.151 465.148C309.735 465.148 310.195 464.968 310.531 464.608C310.867 464.248 311.035 463.724 311.035 463.036V459.424H312.127Z" fill="white"/>
<circle cx="-6" cy="700" r="15" fill="#19298D"/>
<circle cx="28" cy="604" r="15" fill="#19298D"/>
<circle cx="64" cy="775" r="15" fill="#19298D"/>
<circle cx="98" cy="679" r="15" fill="#19298D"/>
<circle cx="134" cy="850" r="15" fill="#19298D"/>
<circle cx="168" cy="754" r="15" fill="#19298D"/>
<circle cx="238" cy="829" r="15" fill="#19298D"/>
<circle cx="-8" cy="630" r="19" fill="#19298D"/>
<circle cx="28" cy="801" r="19" fill="#19298D"/>
<circle cx="62" cy="705" r="19" fill="#19298D"/>
<circle cx="132" cy="780" r="19" fill="#19298D"/>
<circle cx="202" cy="855" r="19" fill="#19298D"/>
<path d="M4 578C4 590.703 -6.29745 601 -19 601C-31.7025 601 -42 590.703 -42 578C-42 565.297 -31.7025 555 -19 555C-6.29745 555 4 565.297 4 578ZM-29.7902 578C-29.7902 583.959 -24.9593 588.79 -19 588.79C-13.0407 588.79 -8.20979 583.959 -8.20979 578C-8.20979 572.041 -13.0407 567.21 -19 567.21C-24.9593 567.21 -29.7902 572.041 -29.7902 578Z" fill="#19298D"/>
<path d="M40 749C40 761.703 29.7025 772 17 772C4.29745 772 -6 761.703 -6 749C-6 736.297 4.29745 726 17 726C29.7025 726 40 736.297 40 749ZM6.20979 749C6.20979 754.959 11.0407 759.79 17 759.79C22.9593 759.79 27.7902 754.959 27.7902 749C27.7902 743.041 22.9593 738.21 17 738.21C11.0407 738.21 6.20979 743.041 6.20979 749Z" fill="#19298D"/>
<path d="M74 653C74 665.703 63.7025 676 51 676C38.2975 676 28 665.703 28 653C28 640.297 38.2975 630 51 630C63.7025 630 74 640.297 74 653ZM40.2098 653C40.2098 658.959 45.0407 663.79 51 663.79C56.9593 663.79 61.7902 658.959 61.7902 653C61.7902 647.041 56.9593 642.21 51 642.21C45.0407 642.21 40.2098 647.041 40.2098 653Z" fill="#19298D"/>
<circle cx="87" cy="824" r="23" fill="#19298D"/>
<circle cx="121" cy="728" r="23" fill="#19298D"/>
<path d="M214 803C214 815.703 203.703 826 191 826C178.297 826 168 815.703 168 803C168 790.297 178.297 780 191 780C203.703 780 214 790.297 214 803ZM180.21 803C180.21 808.959 185.041 813.79 191 813.79C196.959 813.79 201.79 808.959 201.79 803C201.79 797.041 196.959 792.21 191 792.21C185.041 792.21 180.21 797.041 180.21 803Z" fill="#19298D"/>
<circle cx="164" cy="-4" r="15" fill="#19298D"/>
<circle cx="234" cy="71" r="15" fill="#19298D"/>
<circle cx="304" cy="146" r="15" fill="#19298D"/>
<circle cx="338" cy="50" r="15" fill="#19298D"/>
<circle cx="374" cy="221" r="15" fill="#19298D"/>
<circle cx="128" cy="22" r="19" fill="#19298D"/>
<circle cx="198" cy="97" r="19" fill="#19298D"/>
<circle cx="232" cy="1" r="19" fill="#19298D"/>
<circle cx="268" cy="172" r="19" fill="#19298D"/>
<circle cx="302" cy="76" r="19" fill="#19298D"/>
<circle cx="338" cy="247" r="19" fill="#19298D"/>
<circle cx="372" cy="151" r="19" fill="#19298D"/>
<circle cx="408" cy="322" r="19" fill="#19298D"/>
<path d="M210 45C210 57.7025 199.703 68 187 68C174.297 68 164 57.7025 164 45C164 32.2975 174.297 22 187 22C199.703 22 210 32.2975 210 45ZM176.21 45C176.21 50.9593 181.041 55.7902 187 55.7902C192.959 55.7902 197.79 50.9593 197.79 45C197.79 39.0407 192.959 34.2098 187 34.2098C181.041 34.2098 176.21 39.0407 176.21 45Z" fill="#19298D"/>
<circle cx="257" cy="120" r="23" fill="#19298D"/>
<path d="M314 24C314 36.7025 303.703 47 291 47C278.297 47 268 36.7025 268 24C268 11.2975 278.297 1 291 1C303.703 1 314 11.2975 314 24ZM280.21 24C280.21 29.9593 285.041 34.7902 291 34.7902C296.959 34.7902 301.79 29.9593 301.79 24C301.79 18.0407 296.959 13.2098 291 13.2098C285.041 13.2098 280.21 18.0407 280.21 24Z" fill="#19298D"/>
<path d="M350 195C350 207.703 339.703 218 327 218C314.297 218 304 207.703 304 195C304 182.297 314.297 172 327 172C339.703 172 350 182.297 350 195ZM316.21 195C316.21 200.959 321.041 205.79 327 205.79C332.959 205.79 337.79 200.959 337.79 195C337.79 189.041 332.959 184.21 327 184.21C321.041 184.21 316.21 189.041 316.21 195Z" fill="#19298D"/>
<circle cx="361" cy="99" r="23" fill="#19298D"/>
<path d="M420 270C420 282.703 409.703 293 397 293C384.297 293 374 282.703 374 270C374 257.297 384.297 247 397 247C409.703 247 420 257.297 420 270ZM386.21 270C386.21 275.959 391.041 280.79 397 280.79C402.959 280.79 407.79 275.959 407.79 270C407.79 264.041 402.959 259.21 397 259.21C391.041 259.21 386.21 264.041 386.21 270Z" fill="#19298D"/>
</g>
<defs>
<clipPath id="clip0_1435_17178">
<rect width="390" height="844" fill="white"/>
</clipPath>
</defs>
</svg>
